<svg xmlns="http://www.w3.org/2000/svg" xmlns:xlink="http://www.w3.org/1999/xlink" viewBox="0 0 327.19 357.5"><defs><style>.cls-1{isolation:isolate;}.cls-2{fill:#c9c9c9;}.cls-3,.cls-4{fill:#999;}.cls-18,.cls-4{opacity:0.2;mix-blend-mode:multiply;}.cls-5{fill:#535b5a;}.cls-6{fill:#515148;}.cls-7{fill:url(#linear-gradient);}.cls-11,.cls-8{opacity:0.3;}.cls-8{mix-blend-mode:screen;fill:url(#linear-gradient-2);}.cls-9{fill:#34403e;}.cls-10{fill:#2c2c24;}.cls-11{mix-blend-mode:darken;}.cls-12,.cls-18{fill:#565e60;}.cls-13{fill:#fff;opacity:0.6;}.cls-14{fill:#6a6e75;}.cls-15{fill:url(#linear-gradient-3);}.cls-16{fill:#610f47;}.cls-17{fill:#3a092d;}.cls-19{fill:url(#linear-gradient-4);}.cls-20{fill:#ff4418;}.cls-21{fill:#d83413;}.cls-22{fill:url(#linear-gradient-5);}.cls-23{fill:#ffc000;}.cls-24{fill:#b28300;}.cls-25{fill:url(#linear-gradient-6);}.cls-26{fill:#9e003d;}.cls-27{fill:#7f0034;}.cls-28{fill:#515151;}</style><linearGradient id="linear-gradient" x1="153.45" y1="16.92" x2="153.45" y2="29.17" gradientUnits="userSpaceOnUse"><stop offset="0" stop-color="#d3e0e5"/><stop offset="1" stop-color="#abbbc2"/></linearGradient><linearGradient id="linear-gradient-2" x1="152.46" y1="18.05" x2="152.46" y2="23.78" xlink:href="#linear-gradient"/><linearGradient id="linear-gradient-3" x1="227.21" y1="33.71" x2="246.59" y2="33.71" xlink:href="#linear-gradient"/><linearGradient id="linear-gradient-4" x1="183.89" y1="33.71" x2="203.27" y2="33.71" xlink:href="#linear-gradient"/><linearGradient id="linear-gradient-5" x1="132.1" y1="33.71" x2="151.47" y2="33.71" xlink:href="#linear-gradient"/><linearGradient id="linear-gradient-6" x1="80.3" y1="33.71" x2="99.67" y2="33.71" xlink:href="#linear-gradient"/></defs><title>cabides</title><g class="cls-1"><g id="OBJECTS"><path class="cls-2" d="M271.23,344.29l1.32-331.2s2.38,0,6.94,0,8.26,2.85,8.26,6.36V344.29Z"/><path class="cls-3" d="M264.62,344.29V19.2c0-3.38,3.55-6.11,7.93-6.11s7.93,2.73,7.93,6.11V344.29Z"/><path class="cls-4" d="M275.86,22.23c1.83-3.39-5.28-4-10.46-4.25l-.64.1a4.58,4.58,0,0,0-.14,1.12V42.26C267.19,40.15,274.21,25.28,275.86,22.23Z"/><path class="cls-5" d="M269.91,16.73H264.4a6.28,6.28,0,1,1,0,12.56h5.51a6.28,6.28,0,0,0,0-12.56Z"/><path class="cls-6" d="M270.67,23a6.27,6.27,0,1,1-6.27-6.27A6.27,6.27,0,0,1,270.67,23Z"/><path class="cls-7" d="M263.3,27H43.6a4,4,0,0,1,0-7.93H263.3a4,4,0,0,1,0,7.93Z"/><path class="cls-8" d="M39.65,22.76H265.27a4,4,0,0,0-4-3.71H43.6A4,4,0,0,0,39.65,22.76Z"/><rect class="cls-2" x="43.2" y="312.74" width="231.94" height="18.79"/><path class="cls-9" d="M53.49,16.73H48a6.28,6.28,0,1,1,0,12.56h5.51a6.28,6.28,0,1,0,0-12.56Z"/><path class="cls-10" d="M54.25,23A6.27,6.27,0,1,1,48,16.73,6.27,6.27,0,0,1,54.25,23Z"/><g class="cls-11"><rect class="cls-12" x="59.17" y="23" width="209.97" height="2.64"/></g><rect class="cls-2" x="249.37" y="343.1" width="60.15" height="8.59"/><rect class="cls-3" x="249.37" y="343.1" width="38.21" height="8.59"/><path class="cls-13" d="M59.59,21.51H267a4.1,4.1,0,0,0-.89-1.32H59.1A6.74,6.74,0,0,1,59.59,21.51Z"/><path class="cls-14" d="M241.11,19.05h-7a9.19,9.19,0,0,1,6.17,4.78c.51,1,.76,2.73-.45,3.15h4.95C244.47,23.92,242.73,21.17,241.11,19.05Z"/><path class="cls-15" d="M235.39,14.67a10.33,10.33,0,0,0-8.18,4.38h7l1.17,0c4.27,0,7.72,4.2,7.72,9.49a10.57,10.57,0,0,1-6.56,9.86c-3.71,1.67-3,7.6-2.91,7.91v6.46l3.44-.7V48.59c0-.17-.15-5.47.15-6A5,5,0,0,1,238,42c5.4-2.12,8.63-7.16,8.63-13.48C246.59,20.88,241.56,14.67,235.39,14.67Z"/><path class="cls-16" d="M233.89,66.41l.23-.12,1,0h-5.45l-1,0A115.92,115.92,0,0,1,215.44,72l-3,1.08-.94.35-2,.74-1,.4-1.85.72-.94.37c-.71.29-1.41.57-2.09.86l-.56.23c-.87.36-1.71.72-2.53,1.08-.23.09-.44.19-.66.29l-1.78.79-.83.38-1.53.72-.81.39-1.56.76-.63.32c-.71.35-1.39.71-2.06,1.06l-.31.17-1.65.9-.63.36-1.24.72-.64.38-1.17.72-.56.35c-.47.31-.94.61-1.39.92l-.21.14c-.51.34-1,.69-1.47,1l-.44.33-.94.72-.48.38-.81.67-.28.24a1.07,1.07,0,0,0-.16.14c-.29.25-.56.49-.82.74l-.3.27c-.35.34-.69.68-1,1a.08.08,0,0,0,0,0l-.1.1c-.33.36-.65.72-.94,1.08,0,0-.1.1-.14.16l-.12.15-.41.55-.21.26-.09.14-.26.39-.2.3-.11.19a1.59,1.59,0,0,0-.13.22,1.32,1.32,0,0,0-.12.2,4,4,0,0,0-.24.46l-.06.11,0,0c-.08.16-.16.32-.23.48l-.09.24a.61.61,0,0,0-.05.12.42.42,0,0,0,0,.1c-.06.15-.12.3-.17.45l-.06.19,0,.09,0,.12c0,.13-.07.25-.1.38l-.06.25s0,0,0,.06a.64.64,0,0,1,0,.07h0l-.06.38c0,.1,0,.2,0,.3a.13.13,0,0,1,0,.06v0c0,.13,0,.27,0,.4s0,.23,0,.35c0,.34,0,.67,0,1a1.15,1.15,0,0,1,0,.19c0,.25,0,.49,0,.72,0,.38,0,.73-.08,1.06l0,.34c0,.14,0,.27-.05.4l-.06.38a1.7,1.7,0,0,1,0,.22c0,.18-.06.35-.1.52v0c0,.17-.08.34-.13.49l0,.07a4.31,4.31,0,0,1-.15.43l0,0a2.12,2.12,0,0,1-.19.4h0c-.07.12-.14.22-.21.32l0,0a2.52,2.52,0,0,1-.21.25l-.05,0-.15.13-.19.13-.13.08-.22.09-.13,0a2.27,2.27,0,0,1-.25.06l-.13,0c-.13,0,.53,0,.39,0H170l-.07,0-.25.06-.13,0a2.6,2.6,0,0,1-.4,0h5.45a2.6,2.6,0,0,0,.4,0l.13,0,.25-.06.14,0,.21-.1.13-.07.19-.13.07,0,.08-.08,0-.05,0,0,.13-.15.06-.07,0,0,0,0s.07-.09.1-.15l.08-.13v0h0l.09-.17.08-.18s0,0,0,0a.05.05,0,0,0,0,0,.5.5,0,0,0,.05-.13l.09-.23a.14.14,0,0,1,0-.06.19.19,0,0,1,0-.07s0-.1,0-.15l.09-.34h0a.13.13,0,0,0,0-.06,3.21,3.21,0,0,0,.08-.36.5.5,0,0,0,0-.12,1.57,1.57,0,0,0,0-.23c0-.07,0-.13,0-.2s0-.12,0-.17,0-.28.05-.42a1.23,1.23,0,0,0,0-.19.49.49,0,0,0,0-.12c0-.34.06-.7.08-1.08h0c0-.17,0-.36,0-.54s0-.23,0-.35c0-.32,0-.65,0-1s0-.52,0-.78a.2.2,0,0,0,0-.07q0-.37.12-.75l0-.07a6.87,6.87,0,0,1,.19-.75l0-.08a7.41,7.41,0,0,1,.26-.75l.05-.11c.1-.25.21-.5.34-.76l.06-.11q.17-.33.36-.66a2.39,2.39,0,0,1,.13-.21c.1-.17.21-.34.32-.5l.25-.39.3-.4c.13-.18.27-.36.41-.53s.18-.22.27-.33c.29-.35.59-.7.92-1.06l.15-.16c.32-.33.65-.66,1-1l.31-.28c.26-.25.53-.49.81-.73l.44-.38c.26-.23.53-.45.81-.67l.49-.39.93-.71.45-.33,1.46-1,.24-.15c.44-.3.89-.6,1.36-.9l.57-.36,1.15-.71.66-.39,1.22-.71.65-.36c.52-.3,1.07-.59,1.62-.89l.33-.18,2.06-1.07.65-.32,1.54-.76.82-.39,1.51-.71.85-.39,1.76-.78.67-.3,2.53-1.08.56-.23,2.09-.85.94-.37,1.85-.73,1-.39,2-.74.93-.35,3-1.08a117.73,117.73,0,0,0,13.23-5.74l1,0Z"/><path class="cls-16" d="M311.53,100.43c0-.13,0-.25,0-.38a2.18,2.18,0,0,0,0-.25c0-.1,0-.22,0-.33,0-.32-.07-.64-.12-1a2.85,2.85,0,0,0,0-.29c0-.22-.08-.45-.13-.68a9.3,9.3,0,0,0-.25-1c0-.1-.07-.21-.1-.32s-.15-.46-.24-.68-.09-.24-.14-.36-.19-.44-.3-.67l-.15-.31-.06-.14c0-.08-.09-.15-.14-.23-.17-.33-.36-.65-.56-1-.05-.07-.08-.15-.13-.22l-.13-.18c-.17-.25-.35-.51-.54-.76a2.48,2.48,0,0,0-.19-.26.39.39,0,0,0-.08-.1q-.35-.43-.72-.87l-.15-.19,0,0c-.32-.36-.65-.72-1-1.07l0,0-.23-.21-.89-.84-.17-.15-.23-.19c-.35-.31-.71-.61-1.09-.91l-.23-.19-.1-.07c-.53-.42-1.09-.82-1.66-1.22l-.15-.11L301,84.9l-.51-.35-.78-.49-.52-.33-.11-.07-.45-.27-.93-.55-.64-.36-.9-.5-.25-.14-.35-.18c-.46-.24-.92-.48-1.39-.71l-.54-.27c-.63-.32-1.28-.63-1.93-.93l-.05,0-.12-.06c-.86-.39-1.73-.78-2.62-1.16l-.31-.13c-.89-.38-1.79-.74-2.7-1.1l-.27-.11-.34-.13-1.34-.51-.67-.26-1.93-.7-.11,0-2.09-.73-.63-.21-1.5-.49-.3-.1-.22-.07c-1.32-.42-2.67-.84-4-1.24l-.35-.1c-1.44-.43-2.89-.84-4.35-1.24l-1.84-.51-.62-.18-1.13-.33-.67-.2-1-.31-.62-.2-.91-.29-.7-.23-.8-.27-.66-.23-.76-.27-.6-.22-.75-.28-.52-.2-.34-.14c-.45-.18-.88-.35-1.29-.53l-.37-.15-1.37-.61-.24-.11-.86-.41-.33-.17-.68-.35-.34-.18-.48-.27-.34-.2a4.23,4.23,0,0,1-.42-.25,3.37,3.37,0,0,1-.32-.19c-.27-.17-.54-.33-.78-.5v-6c0-.16,0-.31,0-.47v0a6,6,0,0,0-.08-.61h0a7,7,0,0,0-.22-.93l0-.08a5.2,5.2,0,0,0-.34-.8.26.26,0,0,0,0-.08l0-.06-.19-.32a.83.83,0,0,1-.07-.13l0,0-.09-.13a2.43,2.43,0,0,0-.14-.2l-.05-.06-.08-.1-.1-.12-.14-.15-.06-.06,0,0-.21-.21-.08-.06,0,0-.09-.07a1.16,1.16,0,0,0-.21-.16l0,0-.05,0-.12-.08-.21-.13h0l0,0-.16-.07-.22-.1h0l-.19-.07-.21-.06h0l-.26-.06-.14,0h-.13l-.31,0h-7l.44,0H237l.41.08h0a3.24,3.24,0,0,1,.41.13h0l.4.17,0,0,.36.21.05,0a3.81,3.81,0,0,1,.32.24l.07.06.31.28.05.06.24.27.08.09a2.83,2.83,0,0,1,.2.28.76.76,0,0,1,.08.11c0,.06.07.12.11.17l.18.32s.05.09.07.14a5.16,5.16,0,0,1,.33.8l0,.09a6.37,6.37,0,0,1,.22.91v0a5.54,5.54,0,0,1,.07.57,5,5,0,0,1,0,.55v5.95l.79.51.09,0a2.26,2.26,0,0,1,.2.13l.44.26.34.19.49.27.17.09.16.09.68.35.34.17.87.42.18.08.05,0,.17.08.78.35.3.13.82.35.22.09,1,.38.11,0,.54.2.73.28.61.22.76.27.66.23.8.27.71.24.47.15.41.13.64.2,1,.31.66.2,1.14.33.61.18,1.85.51c1.45.4,2.9.81,4.34,1.24l.37.11c1.34.4,2.68.81,4,1.23l.52.17,1.5.49.63.21,2.08.72.16.06,1.87.68.71.27,1.3.49.64.25c.9.36,1.8.72,2.67,1.1l.34.14c.88.38,1.75.76,2.6,1.15l.17.08,1.93.92.56.29,1.36.7.63.33.87.48.66.37.9.54.59.35.49.31.8.51.51.35c.22.14.43.29.64.44.57.4,1.13.8,1.66,1.21l.34.28c.38.3.74.6,1.09.9l.39.35c.31.27.6.55.89.82l.28.27c.35.35.69.71,1,1.07l.19.21c.24.29.49.58.71.87l.28.36.53.76c.09.13.18.26.26.4.2.32.39.64.57,1l.2.37.15.31.3.68.13.34c.09.23.17.47.25.7s.07.21.09.31c.1.34.19.67.26,1s.11.66.16,1,.09.64.12.95,0,.4.05.6,0,.24,0,.36c0,.32,0,.64,0,.94,0,0,0,.06,0,.09,0,.36-.05.72-.09,1v0c-.05.34-.11.67-.19,1a.07.07,0,0,0,0,0c-.09.31-.18.61-.28.89h0a8.6,8.6,0,0,1-.36.81l0,0a7.49,7.49,0,0,1-.45.73h0a5.94,5.94,0,0,1-.49.61l-.06.07c-.18.18-.36.35-.55.51l-.16.13-.45.32-.21.13a4.59,4.59,0,0,1-.49.26,1,1,0,0,1-.18.09,5.38,5.38,0,0,1-.7.28l-.14,0-.61.16-.24,0-.57.08-.24,0c-.26,0,.83,0,.56,0h5.55c.27,0,.54,0,.81,0l.24,0,.56-.08.25,0,.61-.16.14,0a6,6,0,0,0,.7-.28,1.51,1.51,0,0,0,.18-.09,4.59,4.59,0,0,0,.49-.26l.21-.13.44-.32.17-.13.05,0c.16-.14.32-.29.46-.44l0,0,.06-.06.24-.27.25-.33h0l.21-.3.18-.32.05-.1,0,0a.8.8,0,0,0,.08-.16l.15-.31c.05-.11.09-.21.13-.32v0h0l.11-.3c0-.12.07-.24.11-.36l.06-.23a.14.14,0,0,1,0-.06.31.31,0,0,1,0-.08l.09-.41c0-.14,0-.29.07-.44a.06.06,0,0,1,0,0v-.06l.06-.42c0-.19,0-.39,0-.59v-.14c0-.19,0-.38,0-.58S311.53,100.54,311.53,100.43Z"/><path class="cls-17" d="M237.1,52c2.54,0,4.61,2.55,4.61,5.68v5.95c3.31,2.21,8.86,4.81,19.74,7.78,20.94,5.72,41,14.29,43.42,26.17,1.55,7.66-2.11,11.35-7,11.35-2.1,0-3-1.93-3-7.52,0-8.57-14.59-19-43.51-29.19a119.33,119.33,0,0,1-13.23-5.74l-1,0h-7.17l-1,0a117.73,117.73,0,0,1-13.23,5.74c-28.92,10.2-43.51,20.62-43.51,29.19,0,5.59-.93,7.52-3,7.52-4.87,0-8.53-3.69-7-11.35,2.4-11.88,22.48-20.45,43.42-26.17,10.89-3,16.44-5.57,19.75-7.78V57.63c0-3.13,2.07-5.68,4.59-5.68Z"/><path class="cls-17" d="M304.39,104.9c-.06.13-.11.26-.17.38l0,.06a6.59,6.59,0,0,1-.44.72h0a5.94,5.94,0,0,1-.49.61l-.06.07a6.51,6.51,0,0,1-.54.51l-.17.13-.44.32-.21.13a4.67,4.67,0,0,1-.49.27l-.18.09c-.23.1-.46.19-.7.27l-.14,0a6.06,6.06,0,0,1-.61.16l-.25,0c-.18,0-.37.06-.56.09l-.24,0a7.32,7.32,0,0,1-.81,0h6.31a7.32,7.32,0,0,0,.81,0l.24,0c.19,0,.38,0,.56-.09l.25,0a6.06,6.06,0,0,0,.61-.16l.14,0c.24-.08.47-.17.7-.27l.18-.09a4.67,4.67,0,0,0,.49-.27l.21-.13.44-.32.17-.13.05,0a4.78,4.78,0,0,0,.46-.44l0,0,.06-.07a3.27,3.27,0,0,0,.24-.27,4.08,4.08,0,0,0,.25-.33h0l.2-.31a3.37,3.37,0,0,0,.19-.32.41.41,0,0,0,.05-.09l0-.06a1.09,1.09,0,0,0,.08-.15l.11-.23Z"/><path class="cls-18" d="M233.41,18.93a6.64,6.64,0,0,1,1,.09,6.84,6.84,0,0,1,1,0c4.27,0,7.72,4.2,7.72,9.49a10.57,10.57,0,0,1-6.56,9.86c-3.71,1.67-3,7.6-2.91,7.91v6.05l1.46-.29c0-1.92,0-3.29,0-3.46s-.14-5.47.16-6a10.32,10.32,0,0,1,.7-1.87c5.4-2.12,8.68-5.84,8.62-12.16-.12-12.92-11.8-12.81-14.55-9.47h2.22A6.12,6.12,0,0,1,233.41,18.93Z"/><path class="cls-14" d="M197.79,19.05h-7a9.17,9.17,0,0,1,6.17,4.78c.51,1,.76,2.73-.45,3.15h5C201.16,23.92,199.41,21.17,197.79,19.05Z"/><path class="cls-19" d="M192.07,14.67a10.33,10.33,0,0,0-8.18,4.38h7l1.17,0c4.27,0,7.72,4.2,7.72,9.49a10.57,10.57,0,0,1-6.56,9.86c-3.7,1.67-2.95,7.6-2.91,7.91v6.46l3.45-.7c0-1.92,0-3.29,0-3.46s-.14-5.47.16-6a4,4,0,0,1,.7-.55c5.4-2.12,8.62-7.16,8.62-13.48C203.27,20.88,198.24,14.67,192.07,14.67Z"/><path class="cls-20" d="M190.58,66.41l.22-.12,1,0h-5.45l-1,0A115.92,115.92,0,0,1,172.12,72l-3,1.08-.93.35-2,.74-1,.4-1.86.72-.93.37-2.1.86-.56.23-2.53,1.08-.66.29-1.78.79-.83.38L152.4,80l-.81.39-1.56.76-.63.32c-.7.35-1.39.71-2.06,1.06l-.31.17-1.65.9-.62.36-1.25.72-.64.38-1.16.72-.56.35c-.48.31-.94.61-1.39.92l-.21.14c-.51.34-1,.69-1.47,1l-.44.33c-.32.24-.64.48-.94.72l-.49.38-.81.67-.28.24a2,2,0,0,0-.16.14l-.82.74-.3.27c-.35.34-.68.68-1,1,0,0,0,0,0,0l-.09.1c-.34.36-.65.72-1,1.08l-.14.16a1.58,1.58,0,0,1-.12.15l-.41.55a2.56,2.56,0,0,0-.2.26,1.1,1.1,0,0,0-.09.14c-.1.13-.18.26-.27.39s-.14.2-.2.3l-.11.19c0,.07-.09.14-.13.22l-.12.2c-.09.15-.16.3-.24.46l-.06.11,0,0c-.08.16-.15.32-.22.48a2.44,2.44,0,0,0-.1.24l-.05.12,0,.1c-.06.15-.11.3-.16.45a1.39,1.39,0,0,0-.06.19l0,.09,0,.12c0,.13-.07.25-.1.38a2.21,2.21,0,0,0,0,.25s0,0,0,.06,0,0,0,.07h0c0,.12-.05.25-.07.38s0,.2,0,.3v.1l0,.4c0,.11,0,.23,0,.35,0,.34,0,.68,0,1v.19q0,.38,0,.72c0,.38,0,.73-.08,1.06l0,.34c0,.14,0,.27-.05.4l-.06.38,0,.22c0,.18-.07.35-.11.52v0c-.05.17-.09.34-.14.49a.25.25,0,0,0,0,.07,4.29,4.29,0,0,1-.16.43v0c-.06.15-.13.28-.19.4h0a2.53,2.53,0,0,1-.21.32l0,0a2.62,2.62,0,0,1-.22.25l0,0-.15.13-.19.13-.13.08-.21.09-.14,0a1.83,1.83,0,0,1-.25.06l-.12,0c-.13,0,.52,0,.38,0h.32l-.07,0-.25.06-.12,0a2.73,2.73,0,0,1-.41,0h5.45a2.73,2.73,0,0,0,.41,0l.12,0,.25-.06.14,0,.21-.1.13-.07.19-.13.07,0,.08-.08s0,0,.05-.05l0,0,.13-.15,0-.07,0,0,0,0a.78.78,0,0,0,.1-.15l.08-.13v0h0l.09-.17a1.59,1.59,0,0,0,.08-.18l0,0s0,0,0,0l.06-.13c0-.07.05-.15.08-.23l0-.06s0,0,0-.07,0-.1.05-.15l.09-.34h0a.13.13,0,0,1,0-.06c0-.11,0-.23.08-.36a.5.5,0,0,1,0-.12,2.23,2.23,0,0,1,0-.23l0-.2c0-.06,0-.12,0-.17s0-.28,0-.42l0-.19v-.12c0-.34.06-.7.08-1.08h0c0-.17,0-.36,0-.54s0-.23,0-.35c0-.32,0-.65,0-1a6.79,6.79,0,0,1,0-.78v-.07a6.46,6.46,0,0,1,.11-.75s0-.05,0-.07c.05-.25.12-.5.19-.75l0-.08c.08-.25.16-.5.26-.75l0-.11c.1-.25.22-.5.34-.76l.06-.11q.17-.33.36-.66l.13-.21c.1-.17.21-.34.32-.5l.26-.39.29-.4c.13-.18.27-.36.41-.53l.27-.33c.29-.35.6-.7.93-1.06l.15-.16c.31-.33.64-.66,1-1l.31-.28c.27-.25.53-.49.81-.73l.45-.38c.26-.23.53-.45.8-.67l.49-.39.93-.71.45-.33c.47-.34,1-.69,1.47-1l.23-.15,1.36-.9.58-.36,1.15-.71.65-.39,1.23-.71.64-.36,1.62-.89.34-.18,2.05-1.07.65-.32,1.54-.76.82-.39,1.52-.71.84-.38c.58-.27,1.17-.53,1.77-.79l.66-.3,2.53-1.08.57-.23,2.09-.85.94-.37,1.85-.73,1-.39c.65-.25,1.31-.5,2-.74l.93-.35,3-1.08a118.65,118.65,0,0,0,13.24-5.74l1,0Z"/><path class="cls-20" d="M268.21,100.43c0-.13,0-.25,0-.38a2,2,0,0,1,0-.25c0-.1,0-.22-.05-.33,0-.32-.06-.64-.11-1,0-.1,0-.19,0-.29s-.08-.45-.12-.68-.16-.67-.26-1c0-.1-.06-.21-.1-.32s-.15-.46-.24-.68-.09-.24-.14-.36-.19-.44-.29-.67-.1-.21-.16-.31l-.06-.14-.13-.23c-.18-.33-.37-.65-.57-1-.05-.07-.08-.15-.13-.22l-.13-.18-.53-.76c-.07-.09-.13-.18-.2-.26a.39.39,0,0,0-.08-.1c-.22-.29-.47-.58-.72-.87l-.15-.19,0,0c-.31-.36-.65-.72-1-1.07l-.05,0-.23-.21c-.29-.28-.58-.56-.89-.84l-.16-.15-.23-.19c-.36-.31-.72-.61-1.1-.91l-.23-.19-.1-.07c-.53-.42-1.09-.82-1.66-1.22l-.15-.11-.49-.33-.51-.35-.78-.49-.51-.33-.12-.07-.44-.27-.94-.55-.63-.36-.91-.5-.25-.14-.35-.18c-.45-.24-.91-.48-1.38-.71l-.55-.27c-.63-.32-1.27-.63-1.93-.93l-.05,0-.12-.06c-.86-.39-1.73-.78-2.62-1.16l-.31-.13c-.88-.38-1.78-.74-2.7-1.1l-.27-.11L242,77l-1.33-.51-.68-.26-1.93-.7-.11,0-2.09-.73-.62-.21-1.5-.49-.31-.1-.21-.07c-1.33-.42-2.67-.84-4-1.24l-.36-.1c-1.44-.43-2.89-.84-4.34-1.24l-1.85-.51-.62-.18-1.13-.33-.66-.2-1-.31-.62-.2-.9-.29-.7-.23-.81-.27-.65-.23-.77-.27-.6-.22-.75-.28-.52-.2-.34-.14c-.45-.18-.88-.35-1.29-.53l-.37-.15-1.37-.61-.24-.11-.85-.41-.34-.17-.68-.35-.33-.18-.49-.27-.34-.2a4.23,4.23,0,0,1-.42-.25,3.37,3.37,0,0,1-.32-.19l-.78-.5v-6c0-.16,0-.31,0-.47v0c0-.21,0-.41-.07-.61h0a9,9,0,0,0-.23-.93l0-.08a6.38,6.38,0,0,0-.33-.8l0-.08,0-.06a3.37,3.37,0,0,0-.19-.32.83.83,0,0,0-.07-.13s0,0,0,0a1.47,1.47,0,0,0-.1-.13l-.13-.2-.06-.06a.39.39,0,0,0-.08-.1l-.1-.12-.14-.15-.05-.06,0,0-.21-.21-.08-.06-.05,0-.08-.07-.21-.16,0,0-.05,0-.12-.08-.22-.13h0l0,0-.15-.07-.23-.1h0l-.19-.07-.21-.06h0l-.25-.06-.15,0h-.13l-.31,0h-7l.44,0h.08l.4.08h0a2.8,2.8,0,0,1,.41.13h0l.4.17,0,0,.36.21,0,0c.11.07.22.16.33.24l.06.06.31.28,0,.06a3.2,3.2,0,0,1,.25.27l.07.09a2.83,2.83,0,0,1,.2.28l.09.11.1.17c.06.11.13.21.18.32a.61.61,0,0,1,.07.14,6.41,6.41,0,0,1,.34.8s0,.06,0,.09a5.27,5.27,0,0,1,.23.91v0a5.51,5.51,0,0,1,.06.57,4.93,4.93,0,0,1,0,.55v5.95c.24.17.51.34.78.51l.09,0,.21.13.44.26.33.19.49.27.17.09.17.09.67.35a3.59,3.59,0,0,1,.34.17l.88.42a1,1,0,0,0,.18.08l0,0,.17.08.78.35.3.13.83.35.21.09,1,.38.11,0,.54.2.73.28.61.22.76.27.66.23.8.27.71.24.48.15.4.13.64.2,1,.31.66.2,1.14.33.62.18,1.84.51c1.45.4,2.9.81,4.34,1.24l.37.11c1.35.4,2.69.81,4,1.23l.52.17,1.5.49.63.21,2.08.72.16.06,1.88.68.71.27L235,77l.64.25c.9.36,1.8.72,2.68,1.1l.33.14c.88.38,1.75.76,2.6,1.15l.17.08c.66.3,1.3.61,1.93.92l.56.29c.46.23.92.46,1.36.7l.63.33.87.48.66.37.9.54.6.35.49.31.8.51.5.35c.22.14.43.29.64.44.58.4,1.13.8,1.66,1.21l.35.28,1.08.9.4.35.88.82.29.27c.35.35.68.71,1,1.07l.18.21q.38.43.72.87l.27.36c.19.25.37.51.54.76s.17.26.25.4c.21.32.39.64.57,1,.07.12.14.24.2.37l.15.31c.1.23.21.45.3.68s.09.23.14.34l.24.7.1.31c.1.34.18.67.25,1s.11.66.16,1,.09.64.12.95,0,.4,0,.6,0,.24,0,.36c0,.32,0,.64,0,.94v.09c0,.36-.05.72-.1,1v0a7.88,7.88,0,0,1-.19,1v0a7.72,7.72,0,0,1-.28.89h0a6.62,6.62,0,0,1-.36.81l0,0a7.43,7.43,0,0,1-.44.73h0a5.94,5.94,0,0,1-.49.61l-.06.07a6.64,6.64,0,0,1-.55.51l-.16.13a5.15,5.15,0,0,1-.45.32l-.21.13a4.45,4.45,0,0,1-.48.26,1.51,1.51,0,0,1-.18.09,6,6,0,0,1-.7.28l-.14,0-.61.16-.25,0-.56.08-.24,0c-.27,0,.82,0,.55,0h5.55c.28,0,.54,0,.81,0l.24,0,.57-.08.24,0,.61-.16.14,0a5.38,5.38,0,0,0,.7-.28,1.51,1.51,0,0,0,.18-.09,4.59,4.59,0,0,0,.49-.26l.21-.13.44-.32a1.09,1.09,0,0,0,.17-.13l.05,0,.47-.44,0,0,0-.06c.08-.09.16-.17.24-.27l.25-.33h0l.21-.3.19-.32a.47.47,0,0,1,.05-.1l0,0s.05-.1.08-.16.1-.21.14-.31.09-.21.13-.32v0h0c0-.1.08-.2.11-.3s.08-.24.11-.36l.06-.23s0,0,0-.06,0,0,0-.08L268,103c0-.14.05-.29.07-.44a.06.06,0,0,0,0,0,.13.13,0,0,1,0-.06c0-.14,0-.28.05-.42s0-.39,0-.59v-.14c0-.19,0-.38,0-.58S268.22,100.54,268.21,100.43Z"/><path class="cls-21" d="M193.79,52c2.53,0,4.6,2.55,4.6,5.68v5.95c3.31,2.21,8.86,4.81,19.75,7.78,20.94,5.72,41,14.29,43.42,26.17,1.54,7.66-2.12,11.35-7,11.35-2.1,0-3-1.93-3-7.52,0-8.57-14.6-19-43.51-29.19a118.65,118.65,0,0,1-13.24-5.74l-1,0h-7.17l-1,0a118.65,118.65,0,0,1-13.24,5.74c-28.91,10.2-43.5,20.62-43.5,29.19,0,5.59-.94,7.52-3,7.52-4.87,0-8.53-3.69-7-11.34,2.41-11.89,22.48-20.46,43.42-26.18,10.89-3,16.44-5.57,19.75-7.78V57.63c0-3.13,2.07-5.68,4.6-5.68Z"/><path class="cls-21" d="M261.08,104.9c-.06.13-.11.26-.17.38l0,.06a6.59,6.59,0,0,1-.44.72h0a6,6,0,0,1-.5.61l-.05.07c-.18.18-.36.35-.55.51l-.16.13-.45.32-.21.13a4.67,4.67,0,0,1-.49.27l-.18.09a7.26,7.26,0,0,1-.7.27l-.14,0a6.06,6.06,0,0,1-.61.16l-.24,0c-.19,0-.38.06-.57.09l-.24,0a7.2,7.2,0,0,1-.81,0h6.31a7.32,7.32,0,0,0,.81,0l.24,0c.19,0,.38,0,.56-.09l.25,0a6.06,6.06,0,0,0,.61-.16l.14,0c.24-.08.47-.17.7-.27l.18-.09a4.67,4.67,0,0,0,.49-.27l.21-.13.44-.32a1.09,1.09,0,0,0,.17-.13.1.1,0,0,0,.05,0c.16-.14.32-.28.47-.44l0,0,.05-.07.24-.27a4.08,4.08,0,0,0,.25-.33h0l.21-.31.19-.32a.41.41,0,0,1,.05-.09s0,0,0-.06l.09-.15c0-.08.07-.15.1-.23Z"/><path class="cls-18" d="M190.09,18.93a6.64,6.64,0,0,1,1,.09,6.82,6.82,0,0,1,1,0c4.27,0,7.72,4.2,7.72,9.49a10.57,10.57,0,0,1-6.56,9.86c-3.7,1.67-2.95,7.6-2.91,7.91v6.05l1.46-.29V48.59c0-.17-.15-5.47.15-6a10.32,10.32,0,0,1,.7-1.87c5.4-2.12,8.69-5.84,8.63-12.16-.13-12.92-11.81-12.81-14.56-9.47H189A6.12,6.12,0,0,1,190.09,18.93Z"/><path class="cls-14" d="M146,19.05h-7a9.17,9.17,0,0,1,6.16,4.78c.51,1,.76,2.73-.45,3.15h4.95C149.36,23.92,147.61,21.17,146,19.05Z"/><path class="cls-22" d="M140.27,14.67a10.32,10.32,0,0,0-8.17,4.38h7l1.17,0c4.27,0,7.72,4.2,7.72,9.49a10.57,10.57,0,0,1-6.55,9.86c-3.71,1.67-3,7.6-2.92,7.91v6.46l3.45-.7c0-1.92,0-3.29,0-3.46s-.14-5.47.16-6a4,4,0,0,1,.7-.55c5.4-2.12,8.62-7.16,8.62-13.48C151.47,20.88,146.45,14.67,140.27,14.67Z"/><path class="cls-23" d="M138.78,66.41l.22-.12,1,0h-5.45l-1,0A116.82,116.82,0,0,1,120.32,72l-3,1.08-.93.35-2,.74-1,.4-1.86.72-.93.37-2.1.86-.56.23-2.53,1.08-.66.29-1.78.79-.83.38L100.6,80l-.81.39-1.55.76-.64.32c-.7.35-1.39.71-2.06,1.06l-.31.17-1.65.9L93,84l-1.25.72-.64.38-1.16.72-.56.35c-.48.31-.94.61-1.39.92l-.21.14c-.51.34-1,.69-1.47,1l-.44.33c-.32.24-.64.48-.94.72l-.49.38-.81.67-.28.24a2,2,0,0,0-.16.14l-.82.74-.3.27c-.35.34-.68.68-1,1l0,0-.09.1c-.34.36-.65.72-1,1.08l-.14.16a1.58,1.58,0,0,1-.12.15l-.41.55a2.56,2.56,0,0,0-.2.26,1.1,1.1,0,0,0-.09.14c-.1.13-.18.26-.27.39s-.14.2-.2.3l-.11.19c0,.07-.09.14-.13.22l-.12.2c-.09.15-.16.3-.24.46l-.06.11,0,0c-.08.16-.15.32-.22.48a2.44,2.44,0,0,0-.1.24l0,.12,0,.1c-.06.15-.11.3-.16.45a1.39,1.39,0,0,0-.06.19l0,.09s0,.08,0,.12-.07.25-.1.38a2.21,2.21,0,0,0,0,.25s0,0,0,.06,0,0,0,.07h0c0,.12,0,.25-.07.38s0,.2,0,.3v.1l0,.4c0,.11,0,.23,0,.35,0,.34,0,.68,0,1v.19q0,.38,0,.72c0,.38,0,.73-.08,1.06l0,.34c0,.14,0,.27,0,.4l-.06.38,0,.22c0,.18-.07.35-.11.52v0c0,.17-.09.34-.14.49l0,.07a4.29,4.29,0,0,1-.16.43s0,0,0,0-.13.28-.19.4h0a1.77,1.77,0,0,1-.21.32l0,0a2.62,2.62,0,0,1-.22.25l-.05,0-.15.13-.19.13-.13.08-.21.09-.14,0a1.83,1.83,0,0,1-.25.06l-.12,0c-.13,0,.52,0,.38,0h.32l-.07,0-.25.06-.12,0a2.73,2.73,0,0,1-.41,0h5.45a2.73,2.73,0,0,0,.41,0l.12,0,.25-.06.14,0,.21-.1.13-.07.19-.13.07,0,.08-.08s0,0,0-.05l0,0,.13-.15,0-.07,0,0,0,0a.78.78,0,0,0,.1-.15l.08-.13v0h0l.09-.17a1.59,1.59,0,0,0,.08-.18l0,0,0,0a1.12,1.12,0,0,1,0-.13c0-.07,0-.15.08-.23s0,0,0-.06,0,0,0-.07l0-.15.09-.34h0a.13.13,0,0,1,0-.06c0-.11.05-.23.08-.36a.5.5,0,0,1,0-.12,2.23,2.23,0,0,1,0-.23l0-.2c0-.06,0-.12,0-.17s0-.28.05-.42l0-.19v-.12c0-.34.06-.7.08-1.08h0c0-.17,0-.36,0-.54s0-.23,0-.35c0-.32,0-.65,0-1a6.79,6.79,0,0,1,0-.78v-.07a6.46,6.46,0,0,1,.11-.75s0-.05,0-.07c.05-.25.12-.5.19-.75l0-.08c.08-.25.16-.5.26-.75a.54.54,0,0,0,0-.11c.1-.25.22-.5.34-.76l.06-.11q.17-.33.36-.66a2.39,2.39,0,0,0,.13-.21c.1-.17.21-.34.32-.5l.26-.39L85,95c.14-.18.27-.36.41-.53l.27-.33c.29-.35.6-.7.93-1.06l.15-.16c.31-.33.64-.66,1-1l.31-.28c.27-.25.53-.49.81-.73l.45-.38c.26-.23.53-.45.8-.67l.49-.39.93-.71L92,88.4c.47-.34,1-.69,1.47-1l.23-.15,1.36-.9.58-.36,1.15-.71.65-.39,1.23-.71.64-.36,1.62-.89.34-.18,2-1.07.65-.32,1.54-.76.82-.39,1.52-.71.84-.38c.58-.27,1.17-.53,1.77-.79l.66-.3,2.53-1.08.57-.23,2.09-.85.94-.37,1.85-.73,1-.39c.65-.25,1.31-.5,2-.74l.93-.35,3-1.08a118.65,118.65,0,0,0,13.24-5.74l1,0Z"/><path class="cls-23" d="M216.41,100.43c0-.13,0-.25,0-.38a2,2,0,0,1,0-.25c0-.1,0-.22,0-.33,0-.32-.07-.64-.12-1,0-.1,0-.19,0-.29s-.07-.45-.12-.68-.16-.67-.25-1c0-.1-.07-.21-.11-.32s-.15-.46-.24-.68-.09-.24-.14-.36-.19-.44-.29-.67-.1-.21-.16-.31l-.06-.14-.13-.23c-.18-.33-.37-.65-.57-1-.05-.07-.08-.15-.13-.22l-.13-.18-.53-.76-.19-.26-.09-.1c-.22-.29-.47-.58-.72-.87l-.15-.19,0,0c-.31-.36-.65-.72-1-1.07,0,0,0,0-.05,0l-.23-.21c-.29-.28-.58-.56-.89-.84l-.16-.15-.23-.19c-.36-.31-.72-.61-1.1-.91l-.23-.19-.1-.07c-.53-.42-1.09-.82-1.66-1.22l-.15-.11-.48-.33-.52-.35-.78-.49-.51-.33-.12-.07-.44-.27-.94-.55-.63-.36L201,82l-.25-.14-.35-.18c-.45-.24-.91-.48-1.38-.71l-.55-.27c-.63-.32-1.27-.63-1.93-.93l-.05,0-.12-.06c-.86-.39-1.73-.78-2.62-1.16l-.31-.13c-.88-.38-1.78-.74-2.7-1.1l-.27-.11-.34-.13-1.33-.51-.68-.26-1.93-.7-.1,0-2.1-.73-.62-.21-1.5-.49-.31-.1-.21-.07c-1.33-.42-2.67-.84-4-1.24l-.35-.1c-1.45-.43-2.9-.84-4.35-1.24l-1.85-.51-.62-.18-1.13-.33-.66-.2-1-.31-.62-.2-.9-.29-.7-.23-.81-.27-.65-.23-.77-.27-.6-.22-.75-.28-.52-.2-.34-.14c-.45-.18-.88-.35-1.29-.53l-.37-.15-1.37-.61-.24-.11-.85-.41-.34-.17-.68-.35-.33-.18-.49-.27-.34-.2-.42-.25a3.37,3.37,0,0,1-.32-.19c-.27-.16-.53-.33-.78-.5v-6c0-.16,0-.31,0-.47v0c0-.21,0-.41-.07-.61h0a9,9,0,0,0-.23-.93l0-.08a5.16,5.16,0,0,0-.33-.8l0-.08,0-.06a3.37,3.37,0,0,0-.19-.32.83.83,0,0,0-.07-.13s0,0,0,0a1.47,1.47,0,0,0-.1-.13l-.13-.2-.06-.06a.39.39,0,0,0-.08-.1l-.09-.12-.15-.15,0-.06,0,0L151,53l-.08-.06,0,0-.08-.07-.21-.16a.05.05,0,0,1,0,0l0,0-.12-.08-.22-.13h0l0,0-.15-.07-.23-.1h0l-.19-.07-.21-.06h0L149,52l-.15,0h-.13l-.31,0h-7l.44,0h.08l.4.08h0a2.8,2.8,0,0,1,.41.13h0a2.87,2.87,0,0,1,.4.18h0c.12.06.24.14.36.21l.05,0,.33.24L144,53l.31.28.05.06a3.2,3.2,0,0,1,.25.27l.07.09a2.83,2.83,0,0,1,.2.28L145,54l.1.17c.06.11.13.21.18.32a.61.61,0,0,1,.07.14,6.41,6.41,0,0,1,.34.8.29.29,0,0,1,0,.09,5.27,5.27,0,0,1,.23.91v0a5.51,5.51,0,0,1,.06.57,4.93,4.93,0,0,1,0,.55v5.95c.24.17.51.34.78.51l.09,0,.21.13.44.26.33.19.49.27.17.09.17.09.67.35a3.59,3.59,0,0,1,.34.17l.88.42a1,1,0,0,0,.18.08l0,0,.17.08.78.35.3.13.83.35.21.09,1,.38.11,0,.54.2.73.28.61.22.76.27.66.23.8.27.71.24.48.15.4.13.64.2,1,.31.67.2,1.13.33.62.18,1.84.51c1.46.4,2.9.81,4.34,1.24l.37.11c1.35.4,2.69.81,4,1.23l.52.17,1.5.49.63.21,2.09.72.15.06,1.88.68.71.27,1.29.49.64.25c.91.36,1.8.72,2.68,1.1l.33.14c.88.38,1.75.76,2.6,1.15l.17.08c.66.3,1.3.61,1.93.92l.56.29c.47.23.92.46,1.36.7l.63.33.87.48.66.37.9.54.6.35.49.31.8.51.5.35c.22.14.43.29.64.44.58.4,1.13.8,1.66,1.21l.35.28,1.08.9.4.35.88.82.29.27c.35.35.68.71,1,1.07l.18.21q.38.43.72.87l.27.36c.19.25.37.51.54.76s.17.26.25.4a10.67,10.67,0,0,1,.57,1c.07.12.14.24.2.37l.15.31c.1.23.21.45.3.68s.09.23.14.34l.24.7.1.31c.1.34.18.67.25,1s.11.66.16,1,.09.64.12.95,0,.4,0,.6,0,.24,0,.36c0,.32,0,.64,0,.94v.09c0,.36-.05.72-.1,1v0a7.88,7.88,0,0,1-.19,1,.43.43,0,0,0,0,0c-.08.31-.18.61-.28.89h0a6.62,6.62,0,0,1-.36.81l0,0a7.43,7.43,0,0,1-.44.73h0a5.94,5.94,0,0,1-.49.61l-.06.07a6.64,6.64,0,0,1-.55.51l-.16.13a5.15,5.15,0,0,1-.45.32l-.21.13a4.45,4.45,0,0,1-.48.26,1.51,1.51,0,0,1-.18.09,6,6,0,0,1-.7.28l-.14,0-.61.16-.25,0-.56.08-.24,0c-.27,0,.83,0,.55,0h5.55c.27,0,.55,0,.81,0l.24,0,.57-.08.24,0,.61-.16.14,0a5.38,5.38,0,0,0,.7-.28l.19-.09c.16-.08.32-.16.48-.26l.21-.13.44-.32a1.09,1.09,0,0,0,.17-.13l.06,0c.16-.14.31-.29.46-.44l0,0,0-.06.24-.27.25-.33h0c.08-.1.14-.2.21-.3l.19-.32a.47.47,0,0,1,.05-.1l0,0s0-.1.08-.16.1-.21.14-.31.09-.21.13-.32v0h0c0-.1.08-.2.11-.3s.08-.24.11-.36l.06-.23s0,0,0-.06,0,0,0-.08l.09-.41c0-.14.05-.29.08-.44v0s0,0,0-.06,0-.28.05-.42,0-.39,0-.59v-.14c0-.19,0-.38,0-.58S216.42,100.54,216.41,100.43Z"/><path class="cls-24" d="M142,52c2.53,0,4.6,2.55,4.6,5.68v5.95c3.31,2.21,8.86,4.82,19.75,7.78,20.94,5.72,41,14.29,43.42,26.17,1.54,7.66-2.12,11.35-7,11.35-2.1,0-3-1.93-3-7.52,0-8.57-14.59-19-43.51-29.19A118.65,118.65,0,0,1,143,66.43l-1,0h-7.17l-1,0a118.65,118.65,0,0,1-13.24,5.74c-28.91,10.2-43.5,20.62-43.5,29.19,0,5.59-.94,7.52-3,7.52-4.87,0-8.53-3.69-7-11.34,2.41-11.89,22.48-20.46,43.42-26.18,10.89-3,16.44-5.57,19.75-7.78V57.63c0-3.13,2.07-5.68,4.6-5.68Z"/><path class="cls-24" d="M209.27,104.9c-.05.13-.1.26-.16.38l0,.06q-.21.38-.45.72h0a6,6,0,0,1-.5.61l0,.07c-.18.18-.36.35-.55.51l-.16.13-.45.32-.21.13a4.67,4.67,0,0,1-.49.27l-.18.09a7.26,7.26,0,0,1-.7.27l-.14,0a6.06,6.06,0,0,1-.61.16l-.24,0c-.19,0-.38.06-.57.09l-.24,0a7.2,7.2,0,0,1-.81,0H209a7.2,7.2,0,0,0,.81,0l.24,0c.19,0,.38,0,.57-.09l.24,0a6.06,6.06,0,0,0,.61-.16l.14,0a7.26,7.26,0,0,0,.7-.27l.19-.09q.24-.12.48-.27l.21-.13.44-.32a1.09,1.09,0,0,0,.17-.13.1.1,0,0,0,0,0,4.89,4.89,0,0,0,.47-.44l0,0,.05-.07a3.27,3.27,0,0,0,.24-.27,4.08,4.08,0,0,0,.25-.33h0l.21-.31.19-.32a.41.41,0,0,1,0-.09l0-.06a1.09,1.09,0,0,1,.08-.15,2.29,2.29,0,0,1,.1-.23Z"/><path class="cls-18" d="M138.29,18.93a6.64,6.64,0,0,1,1,.09,6.82,6.82,0,0,1,1,0c4.27,0,7.72,4.2,7.72,9.49a10.57,10.57,0,0,1-6.55,9.86c-3.71,1.67-3,7.6-2.92,7.91v6.05l1.46-.29V48.59c0-.17-.15-5.47.15-6a10.32,10.32,0,0,1,.7-1.87c5.4-2.12,8.69-5.84,8.63-12.16-.13-12.92-11.81-12.81-14.56-9.47h2.22A6.12,6.12,0,0,1,138.29,18.93Z"/><path class="cls-14" d="M94.19,19.05h-7A8.2,8.2,0,0,1,94,23.83,2.4,2.4,0,0,1,92.88,27h5C97.56,23.92,95.81,21.17,94.19,19.05Z"/><path class="cls-25" d="M88.47,14.67a10.32,10.32,0,0,0-8.17,4.38h7l1.17,0c4.27,0,7.72,4.2,7.72,9.49a10.57,10.57,0,0,1-6.55,9.86c-3.71,1.67-3,7.6-2.92,7.91v6.46l3.45-.7c0-1.92,0-3.29,0-3.46s-.14-5.47.16-6a4,4,0,0,1,.7-.55c5.4-2.12,8.62-7.16,8.62-13.48C99.67,20.88,94.65,14.67,88.47,14.67Z"/><path class="cls-26" d="M87,66.41l.22-.12,1,0H82.76l-1,0A116.82,116.82,0,0,1,68.52,72l-3,1.08-.93.35-2,.74-1,.4-1.86.72-.93.37-2.1.86-.56.23L53.6,77.86l-.66.29-1.78.79-.83.38L48.8,80l-.81.39-1.55.76-.64.32c-.7.35-1.39.71-2.06,1.06a3.07,3.07,0,0,1-.31.17l-1.65.9-.62.36-1.25.72-.64.38-1.16.72-.56.35c-.48.31-.94.61-1.39.92l-.21.14c-.51.34-1,.69-1.47,1l-.44.33c-.32.24-.64.48-.94.72l-.49.38-.81.67-.28.24a2,2,0,0,0-.16.14l-.82.74-.3.27c-.35.34-.68.68-1,1l0,0-.09.1c-.34.36-.65.72-.95,1.08l-.14.16a1.58,1.58,0,0,1-.12.15l-.41.55a2.56,2.56,0,0,0-.2.26,1.1,1.1,0,0,0-.09.14c-.1.13-.18.26-.27.39s-.14.2-.2.3l-.11.19c0,.07-.09.14-.13.22l-.12.2-.24.46-.06.11,0,0c-.08.16-.15.32-.22.48a2.44,2.44,0,0,0-.1.24l-.05.12,0,.1c-.06.15-.11.3-.16.45a1.39,1.39,0,0,0-.06.19l0,.09s0,.08,0,.12-.07.25-.1.38a2.21,2.21,0,0,0-.05.25s0,0,0,.06,0,0,0,.07h0c0,.12-.05.25-.07.38s0,.2,0,.3v.06s0,0,0,0l0,.4c0,.11,0,.23,0,.35,0,.34,0,.68,0,1v.19q0,.38,0,.72c0,.38,0,.73-.08,1.06l0,.34c0,.14,0,.27-.05.4l-.06.38,0,.22c0,.18-.07.35-.11.52v0c-.05.17-.09.34-.14.49a.64.64,0,0,1,0,.07,4.29,4.29,0,0,1-.16.43v0c-.06.15-.13.28-.19.4h0a1.77,1.77,0,0,1-.21.32l0,0a2.62,2.62,0,0,1-.22.25l-.05,0-.15.13-.19.13-.13.08-.21.09-.14,0a1.83,1.83,0,0,1-.25.06l-.12,0c-.13,0,.52,0,.38,0h.32l-.07,0-.25.06-.12,0a2.73,2.73,0,0,1-.41,0h5.45a2.73,2.73,0,0,0,.41,0l.12,0,.25-.06.14,0,.21-.1.13-.07.19-.13.07,0,.08-.08s0,0,.05-.05l0,0,.13-.15,0-.07,0,0,0,0a.78.78,0,0,0,.1-.15l.08-.13v0h0l.09-.17a.75.75,0,0,0,.08-.18l0,0,0,0a1.12,1.12,0,0,1,0-.13c0-.07.05-.15.08-.23s0,0,0-.06a.19.19,0,0,0,0-.07s0-.1.05-.15l.09-.34h0a.13.13,0,0,1,0-.06c0-.11.05-.23.08-.36a.5.5,0,0,1,0-.12,2.23,2.23,0,0,1,0-.23l0-.2c0-.06,0-.12,0-.17s0-.28.05-.42l0-.19v-.12c0-.34.06-.7.08-1.08h0c0-.17,0-.36,0-.54s0-.23,0-.35c0-.32,0-.65,0-1a6.79,6.79,0,0,1,0-.78.15.15,0,0,1,0-.07,6.46,6.46,0,0,1,.11-.75s0-.05,0-.07c.05-.25.12-.5.19-.75l0-.08c.08-.25.16-.5.26-.75a.54.54,0,0,0,.05-.11c.1-.25.22-.5.34-.76l.06-.11c.11-.22.24-.44.36-.66a2.39,2.39,0,0,0,.13-.21c.1-.17.21-.34.32-.5l.26-.39.29-.4c.14-.18.27-.36.41-.53l.27-.33c.29-.35.6-.7.93-1.06l.15-.16c.31-.33.64-.66,1-1l.31-.28c.27-.25.53-.49.81-.73l.45-.38c.26-.23.53-.45.8-.67l.49-.39.93-.71.45-.33c.47-.34,1-.69,1.47-1l.23-.15,1.36-.9.58-.36L45,85.24l.65-.39,1.23-.71.64-.36,1.62-.89.34-.18,2-1.07.65-.32,1.54-.76.82-.39L56,79.46l.84-.38c.58-.27,1.17-.53,1.77-.79l.66-.3,2.53-1.08.57-.23,2.09-.85.94-.37,1.85-.73,1-.39c.65-.25,1.31-.5,2-.74l.93-.35,3-1.08a118.65,118.65,0,0,0,13.24-5.74l1,0Z"/><path class="cls-26" d="M164.61,100.43c0-.13,0-.25,0-.38a2,2,0,0,1,0-.25c0-.1,0-.22,0-.33,0-.32-.07-.64-.12-1,0-.1,0-.19,0-.29s-.07-.45-.12-.68-.16-.67-.25-1c0-.1-.07-.21-.11-.32s-.15-.46-.24-.68-.09-.24-.14-.36-.19-.44-.29-.67-.1-.21-.16-.31L163,94l-.13-.23c-.18-.33-.37-.65-.57-1,0-.07-.08-.15-.13-.22l-.13-.18-.53-.76-.19-.26-.09-.1c-.22-.29-.47-.58-.71-.87-.06-.06-.11-.13-.16-.19l0,0c-.31-.36-.65-.72-1-1.07l0,0-.23-.21c-.29-.28-.58-.56-.89-.84l-.16-.15-.23-.19c-.36-.31-.72-.61-1.1-.91l-.23-.19-.1-.07c-.53-.42-1.09-.82-1.66-1.22l-.15-.11-.48-.33-.52-.35-.78-.49-.51-.33-.12-.07-.44-.27-.94-.55-.63-.36-.91-.5-.25-.14-.35-.18L147.24,81l-.55-.27c-.63-.32-1.27-.63-1.93-.93l0,0-.13-.06c-.85-.39-1.73-.78-2.62-1.16l-.31-.13c-.88-.38-1.78-.74-2.7-1.1a2.18,2.18,0,0,0-.27-.11l-.34-.13L137,76.53l-.68-.26-1.93-.7-.1,0-2.1-.73-.62-.21-1.5-.49-.3-.1-.22-.07-4-1.24-.35-.1c-1.45-.43-2.9-.84-4.35-1.24L119,70.85l-.61-.18-1.14-.33-.66-.2-1-.31-.62-.2-.9-.29-.7-.23-.81-.27-.65-.23-.77-.27-.6-.22-.75-.28-.52-.2-.34-.14c-.45-.18-.88-.35-1.29-.53l-.37-.15-1.37-.61-.24-.11-.85-.41-.34-.17-.68-.35-.33-.18-.49-.27-.34-.2-.42-.25a3.37,3.37,0,0,1-.32-.19c-.27-.16-.53-.33-.78-.5v-6a3.7,3.7,0,0,0,0-.47v0c0-.21,0-.41-.07-.61h0a9,9,0,0,0-.23-.93l0-.08a5.16,5.16,0,0,0-.33-.8l0-.08,0-.06a3.37,3.37,0,0,0-.19-.32.83.83,0,0,0-.07-.13l0,0a1.47,1.47,0,0,0-.1-.13l-.13-.2-.06-.06a.39.39,0,0,0-.08-.1l-.09-.12-.15-.15,0-.06,0,0L99.17,53l-.08-.06,0,0L99,52.83l-.21-.16,0,0,0,0-.12-.08-.22-.13h0l0,0-.15-.07-.23-.1h0l-.18-.07-.22-.06h0L97.16,52,97,52h-.13l-.31,0h-7L90,52h.08l.4.08h0a2.8,2.8,0,0,1,.41.13h0a2.87,2.87,0,0,1,.4.18h0l.36.21.05,0,.33.24.06.06.31.28.05.06a3.2,3.2,0,0,1,.25.27l.07.09a2.83,2.83,0,0,1,.2.28l.09.11.1.17c.06.11.13.21.18.32a.61.61,0,0,1,.07.14,6.41,6.41,0,0,1,.34.8l0,.09a6.37,6.37,0,0,1,.22.91v0a5.51,5.51,0,0,1,.06.57,4.93,4.93,0,0,1,0,.55v5.95c.24.17.51.34.78.51l.09,0,.21.13.44.26.33.19.49.27.17.09.17.09.67.35a3.59,3.59,0,0,1,.34.17l.88.42a1,1,0,0,0,.18.08l0,0,.18.08.77.35.3.13.83.35.21.09,1,.38.11,0,.54.2.73.28.61.22.76.27.66.23.8.27.71.24.48.15.4.13.64.2,1,.31.67.2,1.13.33.62.18,1.84.51c1.46.4,2.9.81,4.34,1.24l.37.11c1.35.4,2.69.81,4,1.23l.52.17,1.5.49.63.21,2.09.72.15.06,1.88.68.71.27,1.29.49.64.25c.91.36,1.8.72,2.68,1.1l.33.14c.88.38,1.75.76,2.6,1.15l.18.08c.65.3,1.29.61,1.92.92l.56.29c.46.23.92.46,1.36.7l.63.33.87.48.66.37.9.54.6.35.49.31.8.52c.17.11.34.22.5.34s.43.29.64.44c.58.4,1.13.8,1.66,1.22l.35.27,1.08.9.4.35.88.82.29.27c.35.35.68.71,1,1.07l.18.21q.38.43.72.87l.27.36c.19.25.37.51.54.76s.17.26.25.4a10.67,10.67,0,0,1,.57,1c.07.12.14.24.2.37l.15.31c.11.23.21.45.3.68s.09.23.14.34.17.47.24.7l.1.31c.1.34.18.67.25,1s.12.66.16,1,.09.64.12.95,0,.4.05.6,0,.24,0,.36c0,.32,0,.64,0,.94v.09c0,.36,0,.72-.1,1v0c0,.34-.12.67-.2,1a.43.43,0,0,0,0,0,7.72,7.72,0,0,1-.28.89h0a6.62,6.62,0,0,1-.36.81l0,0a7.43,7.43,0,0,1-.44.73h0a5.94,5.94,0,0,1-.49.61l-.06.07a6.64,6.64,0,0,1-.55.51l-.16.13a5.15,5.15,0,0,1-.45.32l-.2.13c-.16.1-.33.18-.49.26a1.51,1.51,0,0,1-.18.09,6,6,0,0,1-.7.28l-.14,0-.61.16-.25,0-.56.08-.24,0c-.27,0,.83,0,.55,0h5.55c.28,0,.55,0,.81,0l.24,0,.57-.08.24,0,.61-.16.14,0a5.38,5.38,0,0,0,.7-.28,1.63,1.63,0,0,0,.19-.09c.16-.08.32-.16.48-.26l.21-.13.44-.32a1.09,1.09,0,0,0,.17-.13l.06,0c.16-.14.31-.29.46-.44l0,0,.05-.06c.08-.09.16-.17.24-.27l.26-.33h0c.08-.1.14-.2.21-.3l.19-.32a.47.47,0,0,1,0-.1l0,0,.08-.16c0-.1.1-.21.14-.31s.09-.21.13-.32v0h0c0-.1.08-.2.11-.3s.08-.24.11-.36l.06-.23s0,0,0-.06,0,0,0-.08l.09-.41c0-.14,0-.29.08-.44v0s0,0,0-.06,0-.28,0-.42,0-.39,0-.59v-.14c0-.19,0-.38,0-.58S164.62,100.54,164.61,100.43Z"/><path class="cls-27" d="M90.19,52c2.53,0,4.6,2.55,4.6,5.68v5.95c3.31,2.21,8.86,4.82,19.75,7.78,20.94,5.72,41,14.29,43.42,26.17,1.54,7.66-2.12,11.35-7,11.35-2.1,0-3-1.93-3-7.52,0-8.57-14.59-19-43.51-29.19A117.73,117.73,0,0,1,91.2,66.43l-1,0H83l-1,0a118.65,118.65,0,0,1-13.24,5.74c-28.91,10.2-43.5,20.62-43.5,29.19,0,5.59-.94,7.52-3,7.52-4.87,0-8.53-3.69-7-11.34,2.41-11.89,22.48-20.46,43.42-26.18,10.89-3,16.44-5.57,19.75-7.78V57.63C78.42,54.5,80.49,52,83,52Z"/><path class="cls-27" d="M157.47,104.9c-.05.13-.1.26-.16.38l0,.06q-.21.38-.45.72h0a6,6,0,0,1-.5.61l-.05.07c-.18.18-.36.35-.55.51l-.16.13-.45.32-.21.13a4.67,4.67,0,0,1-.49.27l-.18.09a7.26,7.26,0,0,1-.7.27l-.14,0a6.06,6.06,0,0,1-.61.16l-.24,0c-.19,0-.38.06-.57.09l-.24,0a7.2,7.2,0,0,1-.81,0h6.31a7.2,7.2,0,0,0,.81,0l.24,0c.19,0,.38,0,.57-.09l.24,0a6.06,6.06,0,0,0,.61-.16l.14,0a7.26,7.26,0,0,0,.7-.27l.19-.09q.24-.12.48-.27l.21-.13.44-.32a1.09,1.09,0,0,0,.17-.13l.06,0a6.33,6.33,0,0,0,.46-.44l0,0,0-.07a3.27,3.27,0,0,0,.24-.27c.09-.1.17-.22.26-.33h0l.21-.31.19-.32a.41.41,0,0,1,.05-.09l0-.06a1.09,1.09,0,0,1,.08-.15,2.29,2.29,0,0,1,.1-.23Z"/><path class="cls-18" d="M86.49,18.93a6.64,6.64,0,0,1,1,.09,6.82,6.82,0,0,1,1,0c4.27,0,7.72,4.2,7.72,9.49a10.57,10.57,0,0,1-6.55,9.86c-3.71,1.67-3,7.6-2.92,7.91v6.05l1.46-.29V48.59c0-.17-.15-5.47.15-6a10.32,10.32,0,0,1,.7-1.87c5.4-2.12,8.69-5.84,8.63-12.16-.13-12.92-11.8-12.81-14.56-9.47h2.22A6.12,6.12,0,0,1,86.49,18.93Z"/><rect class="cls-2" x="19.73" y="343.1" width="60.15" height="8.59"/><rect class="cls-3" x="19.73" y="343.1" width="38.21" height="8.59"/><path class="cls-2" d="M41.57,344.29,43,13.11h6.85c4.56,0,8.26,2.84,8.26,6.36V344.29Z"/><path class="cls-3" d="M35,344.29V19.2c0-3.38,3.55-6.11,7.93-6.11s7.93,2.73,7.93,6.11V344.29Z"/><path class="cls-28" d="M43,19.74a3.43,3.43,0,1,1-3.43,3.43A3.44,3.44,0,0,1,43,19.74Zm0-1.33a4.76,4.76,0,1,0,4.76,4.76A4.76,4.76,0,0,0,43,18.41Z"/></g></g></svg>