<svg xmlns="http://www.w3.org/2000/svg" viewBox="0 0 28.69 25.5"><defs><style>.cls-1{fill:#610F47;fill-rule:evenodd;}</style></defs><title>cart</title><g id="OBJECTS"><path id="path-2" class="cls-1" d="M9.52,19.82a2.41,2.41,0,1,0,2.41,2.41,2.41,2.41,0,0,0-2.41-2.41h0m12.06,0A2.41,2.41,0,1,0,24,22.23h0a2.39,2.39,0,0,0-2.39-2.41h0M4.7.52H2.28V2.93H4.7L9,12.08,7.4,15a2.4,2.4,0,0,0,1,3.27,2.36,2.36,0,0,0,1.16.3H24V16.2H10a.3.3,0,0,1-.3-.3h0l0-.15,1.08-2h9A2.43,2.43,0,0,0,22,12.54l4.31-7.82a1.19,1.19,0,0,0,.15-.58A1.21,1.21,0,0,0,25.2,2.93H7.37l-.49-1A2.42,2.42,0,0,0,4.7.52"/></g></svg>