<svg xmlns="http://www.w3.org/2000/svg" viewBox="0 0 115.25 104.39"><defs><style>.cls-1{fill:#9e003d;}</style></defs><title>provador</title><g id="OBJECTS"><path class="cls-1" d="M52.44,9.5H18.63a1.32,1.32,0,0,0-1.33,1.33V56.36a5.56,5.56,0,1,0-2.9,10.3h1.24A11.69,11.69,0,0,0,12.8,74.3a1.34,1.34,0,0,0,2.67,0,9,9,0,0,1,1.83-5.46V95.35a1.32,1.32,0,0,0,1.33,1.33H39.37a1.32,1.32,0,0,0,1.33-1.33V80.87a22.09,22.09,0,0,0-6-15.17A35.18,35.18,0,0,0,53.77,34.43V10.83A1.33,1.33,0,0,0,52.44,9.5ZM17.3,64H14.4a2.9,2.9,0,1,1,2.9-2.9ZM38,80.87V94H30.26V85.8a1.34,1.34,0,0,0-2.67,0V94h-2.5V82.28a1.33,1.33,0,1,0-2.66,0V94H20V66.66H31.84A19.41,19.41,0,0,1,38,80.87ZM51.11,34.43A32.52,32.52,0,0,1,32.06,64H20V12.16h2.47v13.7a1.33,1.33,0,0,0,2.66,0V12.16H35.81V23.74a1.34,1.34,0,1,0,2.67,0V12.16h3V32.43a1.34,1.34,0,0,0,2.67,0V12.16h7Zm0,0"/><path class="cls-1" d="M106.36,61.1a5.57,5.57,0,0,0-5.56-5.56,5.47,5.47,0,0,0-2.89.82V10.83A1.33,1.33,0,0,0,96.58,9.5H62.77a1.32,1.32,0,0,0-1.33,1.33v23.6A35.17,35.17,0,0,0,80.55,65.7a22.1,22.1,0,0,0-6,15.17V95.35a1.33,1.33,0,0,0,1.34,1.33H96.58a1.33,1.33,0,0,0,1.33-1.33V68.84a9,9,0,0,1,1.83,5.46,1.34,1.34,0,0,0,2.67,0,11.71,11.71,0,0,0-2.84-7.64h1.23a5.56,5.56,0,0,0,5.56-5.56ZM64.1,34.43V12.16h7V32.43a1.33,1.33,0,0,0,2.66,0V12.16h3V23.74a1.34,1.34,0,1,0,2.67,0V12.16H90.12v13.7a1.33,1.33,0,0,0,2.66,0V12.16h2.47V64H83.15A32.52,32.52,0,0,1,64.1,34.43ZM95.25,94H92.78V82.28a1.33,1.33,0,0,0-2.66,0V94h-2.5V85.8a1.34,1.34,0,0,0-2.67,0V94H77.17V80.87a19.43,19.43,0,0,1,6.19-14.21H95.25Zm2.66-30V61.1A2.9,2.9,0,1,1,100.8,64Zm0,0"/></g></svg>