<svg xmlns="http://www.w3.org/2000/svg" viewBox="0 0 75.11 176.63"><defs><style>.cls-1{fill:#f4c691;}</style></defs><title>Sombra</title><g id="OBJECTS"><path class="cls-1" d="M39.75,91.61s.33,3.74.56,27,.16,24.7.42,31.83.34,11.52,0,13.84-1,6.28,4.55,5.68,8.86-.14,9.46.06,8.86.19,4.56-2.47-11.87-2.92-12.64-8.25S48.21,146,48.21,146s2.83-8.26.51-24.42c0,0,9.72-31.55,2.75-47.63,0,0-3.68-5-.58-15.74,0,0,1.3,3.42,1.25,10.38a57.4,57.4,0,0,0,3.27,13.06s.43,1.43-.5,5.19a11.23,11.23,0,0,0,.41,3.44s-.67,2,.09,3,1.51-.92,1.59-2.43c0,0,3,6.62,4.77,7.37S63.53,92,59.59,85.12c0,0,.76-17.25-1.92-22.44,0,0-.08-13.32-.75-17.5S55,40.24,55,40.24s-1.93-2.77-9.88-3.69c0,0-1.59-.84-.17-2.51,0,0,1.4-1,1.32-1.82,0,0-1.66,1.39-1.66.23s.85-2.59,3.09-3.83c0,0,1.53-2.28,1.11-3.89,0,0,8.69-12.76-2.15-19,0,0-8.57-3.23-14,1.8,0,0-8,6.17-2.81,15.27,0,0,4.31,6.17,5.33,7.85s0,4,0,4-.12,2-7.73,3.59-6.23,13.12-6.23,13.12-.3,11-1.08,13.66-1.37,15.75-1.25,19.7-3.12,3.84-3.78,7a22.55,22.55,0,0,0,0,7.07s5.21-2.4,5.75-7.73c0,0,.3-.78.48,0a7.47,7.47,0,0,1,.12,2.52c-.12.42,1.38,1.49,1.8-.84a23.93,23.93,0,0,0-.6-8.69c-.6-1.67,4.13-10.72,3.53-17S27.54,58,27.54,58s.66-.6.72.06,1.74,8.26-1,14.79-2.45,10-2.45,10-.72,13.11,1.43,23.17,3.24,14.32,3.24,14.32-.18,8.32-.66,10.48.12,10,2.16,18.45-.3,12.52-.3,12.52-5.57,4.73-10.73,5.45c0,0-5.09,1.92,2.16,2.9,0,0,7-.8,9.82,0s7,0,6.35-4.82a84.19,84.19,0,0,1-.9-10.18c0-1.8,1.08-20.85,1-21.86S38.5,113,38.5,113l.34-21.08S39.27,91.06,39.75,91.61Z"/></g></svg>