<svg xmlns="http://www.w3.org/2000/svg" viewBox="0 0 72.41 165.15"><defs><style>.cls-1{fill:#ffc000;}.cls-2{fill:none;stroke:#000;stroke-linecap:round;stroke-miterlimit:10;}</style></defs><title>Ampulheta</title><g id="OBJECTS"><polygon class="cls-1" points="18.53 57.37 38.33 85.55 58.47 57.37 18.53 57.37"/><polyline class="cls-1" points="18.19 113.67 58.13 113.67 38.34 85.49"/><path class="cls-2" d="M21.45,18.32s5.39.85,13.18-5.57a20.61,20.61,0,0,1,5.94-3.51,10,10,0,0,1,2.9-.67"/><path class="cls-2" d="M44.25,11.19a8.35,8.35,0,0,1,1.6,5.53c-.28,3.2-1.66,16.7-8.85,17.8S24.55,23.76,24.78,18.3"/><path class="cls-2" d="M16.82,52.12s-.4-2.79,5.91-4.87c4.42-1.46,6.53-1.74,8.28-3.34a7.11,7.11,0,0,0,2.2-5.25V34.53"/><path class="cls-2" d="M16.34,54.28l-.48,21s-.48,7-2,10.8a22.92,22.92,0,0,0-1.44,9.11c0,2-.4,8.56-.4,8.56"/><path class="cls-2" d="M23.61,75.47c.4,1.12-6.15,29.11-6.15,29.11S14.18,115.13,15,117.05s.4,8.47-.4,10.07-.8,6.24-.8,6.24l-2.16-1.28L11,126.56c-1.42,1.36-.74,5.44-.74,5.44l4.48,2.56s1,2.24-1.2,1.52a15.56,15.56,0,0,1-6-4.08c-1-1.28-.16-4.48-.32-7.12s2.64-6.95,3.52-9.91A56,56,0,0,0,12,106.09"/><path class="cls-2" d="M49.07,158.53s9-27,9-31.71"/><path class="cls-2" d="M57.15,107.29s-5.47-.37-11.19,5.47-4.11,4.4-4.11,4.4-2.05,3.84-4.48.16-6.47-9.06-11.27-8.74-8.64.26-8.64.26"/><path class="cls-2" d="M43.62,159.15s-2.56-34.07-5.29-40.23"/><path class="cls-2" d="M55.92,71.54a36.39,36.39,0,0,1-.49,9.7c-1,4.6,2,17.27,2,17.27"/><path class="cls-2" d="M41.62,32.26v5.89S41.07,43.65,49,45s9-.44,11.34,7c1.87,5.94,2.11,16.45,2.12,20.4a16.86,16.86,0,0,0,.31,3.09c.74,3.84,2.53,14,1.78,20.09C63.59,103.07,63,113,63.2,113.9s.54,7.17,1.09,8.26a7.58,7.58,0,0,1-1,7.42s-1,1.9-5,2.09c-.25,0-.32-.46-.29-.74.11-.86,1.7-.74,3-1.88A5.3,5.3,0,0,0,62.44,125a5.84,5.84,0,0,0-.94-2.83c-.16,1.12-.24,1.8-.28,2.23,0,.09,0,.32-.07.63s-.09.73-.17,1.12a3.52,3.52,0,0,1-.6,1.6c-.11.15-.51.68-.87.59-.19,0-.3-.25-.38-.45a12.55,12.55,0,0,1-.45-3.63c4-15.6,1.43-22.89-2-26.65-2.34-2.59-7.34-6-7.5-11.36a15.23,15.23,0,0,1,.87-5c1.19-3.32,2.7-3.69,4.4-7.14a14.22,14.22,0,0,0,1.83-7.17c0-1.21-.2-5.31-3.26-7.41a6.87,6.87,0,0,0-3.13-1.13H27a4.87,4.87,0,0,0-3.88,1.91C21,63.06,18.58,68.72,24.6,76.65c6.84,9,1.84,14.76-.68,16.84a19.26,19.26,0,0,0-3.48,3.68,22.12,22.12,0,0,0-3.7,8.63c-.51,2.78-.28,5,.19,9.32a71.08,71.08,0,0,0,3.63,15.38c.59,1.71,1.12,2.94,1.31,3.5,1.56,4.67,4.67,12.11,9.29,25.16"/></g></svg>