<svg xmlns="http://www.w3.org/2000/svg" viewBox="0 0 72.41 165.15"><defs><style>.cls-1{fill:#ffc000;}.cls-2{fill:none;stroke:#000;stroke-linecap:round;stroke-miterlimit:10;}</style></defs><title>Circulo</title><g id="OBJECTS"><circle class="cls-1" cx="35.97" cy="82.11" r="25.21"/><path class="cls-2" d="M20.22,22.09s2.54,2.65,13-5.19S43.32,7.74,43.32,7.74"/><path class="cls-2" d="M21.39,16.57S27,34.76,35.6,35.34s7.79-24.67,7.07-25.17"/><path class="cls-2" d="M40.35,33.48s-.57,11.78,7.43,11c0,0,11.67-1.6,12.13,13.16a259.52,259.52,0,0,0,1.6,28.71,166.61,166.61,0,0,1-1.14,26.78,24.9,24.9,0,0,0,1.27,7.2s1.48,8-1.16,9.73c-4.68,4.41-6.11,5.24-6.41,5-.14-.12,0-.45.15-1a6,6,0,0,1,1.92-2.82s4.23-3.66.23-8.92c0,0,1.71-17.28-1.26-26.77a29,29,0,0,0-1-10.6,24.19,24.19,0,0,1-1.23-5.75,20.15,20.15,0,0,1,.41-5.44c.19-.41,3.27-7.16-.38-12.2a9.78,9.78,0,0,0-3.54-3H25S16.14,59.8,20.28,73.7a12.73,12.73,0,0,1-.15,7.77c-.55,1.59-1.14,3.42-1.75,5.44-4.25,14.08-7.34,24.32-5.49,36,1.2,7.6,4.15,13.73,7.78,21.29,2.78,5.77,5.19,10.54,7.09,13.84"/><path class="cls-2" d="M46.34,158.07s9.63-29.65,10-35.81"/><path class="cls-2" d="M36,117.93q.9,4.77,1.67,9.76a285.62,285.62,0,0,1,3.06,31.72"/><path class="cls-2" d="M13.14,107a15.36,15.36,0,0,1,15.58,3.55c7.25,6.85,6.64,7.55,8.05,7.35s3.92-2.9,4.36-3.44,7.77-7.72,9.28-7.85,5.56-.45,6-.09"/><path class="cls-2" d="M31,34.19s1.57,10.49-5.69,11.22a10.23,10.23,0,0,0-2.44.59c-3,1.14-9.15,4.08-8.81,9V76.87s.4,1.76-1.13,5.28S9.81,96.4,9.81,96.4L8.66,112.49a49.68,49.68,0,0,1-2.52,8.85,20.35,20.35,0,0,0-1.38,7.53v.4s-.77,3.07,5,5.67c4.45,2,1.36-1.25-.86-3.26-.65-.58-1.22-1.05-1.52-1.26-1.3-.92,1.46-7.13,2-4s-.15,4.36-.15,4.36l1.46,1.69,1.68-9.65"/></g></svg>