<svg xmlns="http://www.w3.org/2000/svg" viewBox="0 0 72.41 165.15"><defs><style>.cls-1{fill:#ffc000;}.cls-2{fill:none;stroke:#000;stroke-linecap:round;stroke-miterlimit:10;}</style></defs><title>Retangulo</title><g id="OBJECTS"><rect class="cls-1" x="24.04" y="58.06" width="28.72" height="55.92"/><path class="cls-2" d="M21.69,17.68a19.1,19.1,0,0,0,5-1c5.7-1.92,9.5-6.3,13.21-7.34a22,22,0,0,1,4-.68c.6,0,1.08,0,1.39,0"/><path class="cls-2" d="M44.48,10.54a8.42,8.42,0,0,1,1.61,5.53c-.28,3.21-1.66,16.7-8.85,17.81S24.79,23.11,25,17.66"/><path class="cls-2" d="M41.46,31.27s-.62,6.86,1.06,8.37"/><path class="cls-2" d="M43.31,40.68a26.2,26.2,0,0,0,8.37,2,10.74,10.74,0,0,1,8.54,5.35,11.7,11.7,0,0,1,1.34,6.38s.24,15,.88,19.44A112.15,112.15,0,0,1,63.08,86"/><path class="cls-2" d="M63.08,86.89a148.18,148.18,0,0,1-.48,18.17,47.56,47.56,0,0,0,.57,12.75l0,.19A16.58,16.58,0,0,1,59,132.36l-2.18,2.34s-1.42,1.13-1.88.23a1.46,1.46,0,0,1-.17-.73c.05-.77,1-1.56,1-1.56A14,14,0,0,0,59,128c1.13-2.61.19-5.42-.11-5.42s0,3.29-2.21,5.67c-.9,1-1.28,1.39-1.77,1.27l.48-6.62s2.46-16.38-.69-26.09-2.91-11.26-2.91-11.26a19.48,19.48,0,0,1,.68-10.11,26.43,26.43,0,0,0,1.66-9.64s-.44-6.41-1.28-6.64-28.8,0-28.8,0a22.55,22.55,0,0,0-1.3,8.89c.31,5,2.28,7.23,2.67,12.53a24.8,24.8,0,0,1-.75,8.08A69.58,69.58,0,0,0,20.64,109a134,134,0,0,0,9.47,49.92"/><path class="cls-2" d="M41.69,157.72c-.15-2.06-.4-5.36-.69-9.44-.89-12.14-1-14.71-1.57-18.89-.39-3-1-7.34-2.19-12.54"/><line class="cls-2" x1="48.51" y1="157.57" x2="54.94" y2="129.52"/><path class="cls-2" d="M54.94,105s-4.86,0-7.43,1.89-6.57,7.63-6.57,7.63-2.34,4.76-4.69,1.36-6-7.48-9.44-8.16a50,50,0,0,0-6-.83"/><path class="cls-2" d="M32.58,32.79v3.33s1.05,5.29-5,7.53-6.67,2.59-6.67,2.59-4.78,2-5.18,5.64c0,0,.34,11,.4,14.09s.17,12.36-1.9,16.8-2.93,7.48-2.7,11.85-1.21,17.55-1.55,19A65.2,65.2,0,0,1,6.76,123c-1,2-.63,7.19,0,7.54,0,0,2.25,2.87,5.07,3.45s.17-1.67.17-1.67S8.32,130.52,8.32,129s1-6.73,1.84-3.17a27.35,27.35,0,0,1,.8,5"/><path class="cls-2" d="M22.33,71.62S22.41,82.45,20.58,87a28.64,28.64,0,0,0-1.15,3.26c-.36,1.33-.89,3.41-1.66,6.63-1.93,8.05-4.54,13.58-3.27,18.15a10.65,10.65,0,0,1-.33,6.63A21,21,0,0,0,13,126.19c-.33,2.35-.67,5.31-.44,5.7"/><path class="cls-2" d="M56.61,118.24s2.21-2.29,0-11.14V93.34s-1.32-10.16-1.32-11.88S54.8,70.79,54.47,69"/></g></svg>