<svg xmlns="http://www.w3.org/2000/svg" viewBox="0 0 72.41 165.15"><defs><style>.cls-1{fill:#ffc000;}.cls-2{fill:none;stroke:#000;stroke-linecap:round;stroke-miterlimit:10;}</style></defs><title>Triangulo_invertido</title><g id="OBJECTS"><polygon class="cls-1" points="36.68 110.44 8.64 58.92 63.7 58.92 36.68 110.44"/><path class="cls-2" d="M20.57,18.48s4,12,9.36,16.44l.48.39c4.92,3.89,6.28,1.51,10.17-3.54,4-5.22,1.85-20.88,1.85-20.88"/><path class="cls-2" d="M19.59,22.12a36.51,36.51,0,0,0,11-5.42,42.43,42.43,0,0,1,7.18-4.82,31.72,31.72,0,0,1,5.61-2.17"/><path class="cls-2" d="M38.94,33.9S37.31,43.58,44.3,45s8.17-.1,11.81,4.43a18.66,18.66,0,0,1,3.75,11.22c0,1.08.78,26.48.78,26.48s1.28,17.33-.59,25c0,0-.19,8.37,1.87,13.29,0,0,1,9-8.07,7.19,0,0-.49-1.18,2.95-2.27,0,0,2-3.15-.19-6l-1,4.23s-2.56,4.33-2.36-.69a22.59,22.59,0,0,1,2.17-8.76s0-26.58-1.87-32.68-.69-15.17-.69-15.17,3.15-5.8-3.15-11.32H22.35S11.91,64.94,22,78A16.83,16.83,0,0,1,22.35,96a35.66,35.66,0,0,0-4.76,19.09S18.51,138,28,159.46"/><path class="cls-2" d="M47.07,159.46s9-38,4.84-52.38-7.26-16.53-6-21.5,5.83-12,6.88-13.13"/><path class="cls-2" d="M30.12,35.93S33,44.31,26.55,46.45,14.25,51,14.34,55.72s-.18,17.11-.18,17.11c-.17,1.45-.45,3.58-.9,6.14-1,5.88-1.75,7.12-2.65,11.5l-.16.82c-.82,4.32-1.77,13.71-2,16.55q-.77,5.76-1.54,11.51s-2.32,5.35-2.05,7.84-1.07,5.53,2.94,8.47,3.92,0,3.92,0l-4.46-3.57a6.23,6.23,0,0,1,1.34-5c2-2.58-.09,5.6-.09,5.6l2.36,1.88s2.8-7.67,1.35-15c.28-1.83.76-4.79,1.53-8.39,2.28-10.71,3.91-12.35,5.52-21.25,1-5.75,1.83-13.14,1.83-13.14"/><path class="cls-2" d="M17.77,110s14.29,1.14,18.4,10.39c0,0,1.06,2.66,8.71-8.43,0,0,2.51-4.49,7.46-3"/><path class="cls-2" d="M39.07,159.46s-1.73-35.6-2.9-39.09"/></g></svg>