<svg xmlns="http://www.w3.org/2000/svg" viewBox="0 0 72.41 165.15"><defs><style>.cls-1{fill:#ffc000;}.cls-2{fill:none;stroke:#000;stroke-linecap:round;stroke-miterlimit:10;}</style></defs><title>Triangulo</title><g id="OBJECTS"><polygon class="cls-1" points="35.68 56.83 63.72 108.34 8.65 108.34 35.68 56.83"/><path class="cls-2" d="M21.6,15.73s3.43,16.09,12.69,19S43.55,18,43.55,18L42.3,8.44A35.6,35.6,0,0,1,19.5,19.92"/><path class="cls-2" d="M39.54,33.48S38.11,43,48.89,43.11,60.55,57.56,60.55,57.56L62.67,92l-1.35,21.38a47.88,47.88,0,0,0,1.35,9.25c1.06,3.37-1,7.42-3.47,9.44s-6.47,4.62-3.24-1.06c0,0,4.26-2.06,1.24-9.22a46.29,46.29,0,0,0-4.75-33s-9.07-12.39-1.23-20.08c0,0,2.71-6.78-2.54-9.35H24.79s-4.88,5,0,12.32c0,0,3.77,7.53-2.72,15.14s-10.54,13.95-10.19,21.21c.25,5.08,2.27,14.55,3.46,19.77a43.68,43.68,0,0,0,2.19,6.88l10.61,25.74"/><path class="cls-2" d="M52.31,88.8s1.4-20.74-.44-23.11"/><path class="cls-2" d="M21.89,86.6a77.67,77.67,0,0,0,.9-7.8,81.12,81.12,0,0,0-.12-12.58"/><path class="cls-2" d="M31.65,33.48S34,43.6,25.29,46.05s-11.2,8.66-10.76,12.17c.36,2.91-.18,15.75-.38,20a13,13,0,0,1-.14,1.4c-.11.66-.25,1.15-.3,1.35-1.39,4.86-2.08,7.3-2.8,9.29-3.1,8.5-2.16,25.13-2.16,25.13h0a52.63,52.63,0,0,1-2.86,9.69,4.1,4.1,0,0,0-.29,1.51v4.8A4,4,0,0,0,7,134.5c1,.88,4.72,1.55,4.05,1-1.7-1.42-4.55-4.21-3.48-6.28,0,0,1.19-5.61,2-.43a5.17,5.17,0,0,1,0,.68l0,1.95a4.09,4.09,0,0,0,1.29,3.08l.15.15a15.08,15.08,0,0,1,.82-7.69,19.4,19.4,0,0,0,1.29-3.63,16.24,16.24,0,0,0,.39-4"/><path class="cls-2" d="M47.33,159.69s9-33,9.87-37.86"/><path class="cls-2" d="M40.25,159.69s-1-32.28-4.32-40.56-15.93-16-24-11"/><path class="cls-2" d="M57.62,107.87a14.56,14.56,0,0,0-14.43,6.8s-3,6.24-7,5.14"/></g></svg>